<mxfile host="app.diagrams.net" modified="2024-06-04T16:22:57.323Z" agent="Mozilla/5.0 (Macintosh; Intel Mac OS X 10_15_7) AppleWebKit/537.36 (KHTML, like Gecko) Chrome/125.0.0.0 Safari/537.36" version="24.4.3" etag="_Mlfvd6sc-ss9T44g3Oy" type="github">
  <diagram name="PÃ¡gina-1" id="tZuunXtWXEZ0EmG-QhXS">
    <mxGraphModel>
      <root>
        <mxCell id="0" />
        <mxCell id="1" parent="0" />
      </root>
    </mxGraphModel>
  </diagram>
</mxfile>
